<?xml version="1.0" encoding="UTF-8" standalone="no"?>
<!DOCTYPE svg PUBLIC "-//W3C//DTD SVG 1.1//EN"
 "http://www.w3.org/Graphics/SVG/1.1/DTD/svg11.dtd">
<!-- Generated by graphviz version 2.50.0 (20211204.2007)
 -->
<!-- Title: G Pages: 1 -->
<svg width="747pt" height="469pt"
 viewBox="0.00 0.00 747.00 469.00" xmlns="http://www.w3.org/2000/svg" xmlns:xlink="http://www.w3.org/1999/xlink">
<g id="graph0" class="graph" transform="scale(1 1) rotate(0) translate(4 465)">
<title>G</title>
<polygon fill="white" stroke="transparent" points="-4,4 -4,-465 743,-465 743,4 -4,4"/>
<!-- main -->
<g id="node1" class="node">
<title>main</title>
<polygon fill="lightblue" stroke="transparent" stroke-width="2" points="214,-461 0,-461 0,-296 214,-296 214,-461"/>
<polygon fill="none" stroke="black" points="0,-435.5 0,-460.5 214,-460.5 214,-435.5 0,-435.5"/>
<text text-anchor="start" x="5" y="-445.3" font-family="Helvetica,Arial,sans-serif" font-weight="bold" font-size="14.00">MainSignal</text>
<text text-anchor="start" x="78" y="-445.3" font-family="Helvetica,Arial,sans-serif" font-size="14.00"> </text>
<polygon fill="none" stroke="black" points="0,-368.5 0,-435.5 214,-435.5 214,-368.5 0,-368.5"/>
<text text-anchor="start" x="7" y="-417.3" font-family="Helvetica,Arial,sans-serif" font-size="14.00">Does not have a value</text>
<text text-anchor="start" x="146" y="-417.3" font-family="Helvetica,Arial,sans-serif" font-size="14.00"> (pending)</text>
<text text-anchor="start" x="7" y="-398.3" font-family="Helvetica,Arial,sans-serif" font-size="14.00">Metadata: </text>
<text text-anchor="start" x="146" y="-398.3" font-family="Helvetica,Arial,sans-serif" font-size="14.00">derived</text>
<text text-anchor="start" x="7" y="-379.3" font-family="Helvetica,Arial,sans-serif" font-size="14.00">Does not have a type</text>
<polygon fill="none" stroke="black" points="0,-320.5 0,-368.5 214,-368.5 214,-320.5 0,-320.5"/>
<text text-anchor="start" x="7" y="-350.3" font-family="Helvetica,Arial,sans-serif" font-size="14.00">&#45; dependency 1</text>
<text text-anchor="start" x="7" y="-331.3" font-family="Helvetica,Arial,sans-serif" font-size="14.00">&#45; dependency 2</text>
<polygon fill="none" stroke="black" points="0,-295.5 0,-320.5 214,-320.5 214,-295.5 0,-295.5"/>
<text text-anchor="start" x="5" y="-304.3" font-family="Helvetica,Arial,sans-serif" font-size="14.00">No listeners</text>
</g>
<!-- maindep1 -->
<g id="node2" class="node">
<title>maindep1</title>
<polygon fill="lightyellow" stroke="transparent" stroke-width="2" points="476.5,-424 287.5,-424 287.5,-307 476.5,-307 476.5,-424"/>
<polygon fill="none" stroke="black" points="288,-398.5 288,-423.5 477,-423.5 477,-398.5 288,-398.5"/>
<text text-anchor="start" x="293" y="-408.3" font-family="Helvetica,Arial,sans-serif" font-weight="bold" font-size="14.00">Dependency</text>
<text text-anchor="start" x="374" y="-408.3" font-family="Helvetica,Arial,sans-serif" font-size="14.00"> </text>
<text text-anchor="start" x="378" y="-408.3" font-family="Helvetica,Arial,sans-serif" font-size="8.00" fill="gray">Depth: 1</text>
<polygon fill="none" stroke="black" points="288,-331.5 288,-398.5 477,-398.5 477,-331.5 288,-331.5"/>
<text text-anchor="start" x="295" y="-380.3" font-family="Helvetica,Arial,sans-serif" font-size="14.00">Current value: </text>
<text text-anchor="start" x="427" y="-380.3" font-family="Helvetica,Arial,sans-serif" font-size="14.00">1 </text>
<text text-anchor="start" x="295" y="-361.3" font-family="Helvetica,Arial,sans-serif" font-size="14.00">Metadata: </text>
<text text-anchor="start" x="427" y="-361.3" font-family="Helvetica,Arial,sans-serif" font-size="14.00">signal1</text>
<text text-anchor="start" x="295" y="-342.3" font-family="Helvetica,Arial,sans-serif" font-size="14.00">Does not have a type</text>
<polygon fill="none" stroke="black" points="288,-306.5 288,-331.5 477,-331.5 477,-306.5 288,-306.5"/>
<text text-anchor="start" x="293" y="-315.3" font-family="Helvetica,Arial,sans-serif" font-size="14.00">No dependencies</text>
</g>
<!-- maindep1&#45;&gt;main -->
<g id="edge1" class="edge">
<title>maindep1:header&#45;&gt;main:dep1</title>
<path fill="none" stroke="#1874cd" d="M287,-411.5C247.84,-411.5 251.73,-363.04 219.97,-354.71"/>
<polygon fill="#1874cd" stroke="#1874cd" points="220.35,-351.23 210,-353.5 219.5,-358.18 220.35,-351.23"/>
</g>
<!-- maindep2 -->
<g id="node3" class="node">
<title>maindep2</title>
<polygon fill="lightyellow" stroke="transparent" stroke-width="2" points="514,-288.5 250,-288.5 250,-148.5 514,-148.5 514,-288.5"/>
<polygon fill="none" stroke="black" points="250,-263.5 250,-288.5 514,-288.5 514,-263.5 250,-263.5"/>
<text text-anchor="start" x="255" y="-273.3" font-family="Helvetica,Arial,sans-serif" font-weight="bold" font-size="14.00">Dependency</text>
<text text-anchor="start" x="336" y="-273.3" font-family="Helvetica,Arial,sans-serif" font-size="14.00"> </text>
<text text-anchor="start" x="340" y="-273.3" font-family="Helvetica,Arial,sans-serif" font-size="8.00" fill="gray">Depth: 1</text>
<polygon fill="none" stroke="black" points="250,-196.5 250,-263.5 514,-263.5 514,-196.5 250,-196.5"/>
<text text-anchor="start" x="257" y="-245.3" font-family="Helvetica,Arial,sans-serif" font-size="14.00">Current value: </text>
<text text-anchor="start" x="389" y="-245.3" font-family="Helvetica,Arial,sans-serif" font-size="14.00">5 </text>
<text text-anchor="start" x="257" y="-226.3" font-family="Helvetica,Arial,sans-serif" font-size="14.00">Metadata: </text>
<text text-anchor="start" x="389" y="-226.3" font-family="Helvetica,Arial,sans-serif" font-size="14.00">intermediate_signal</text>
<text text-anchor="start" x="257" y="-207.3" font-family="Helvetica,Arial,sans-serif" font-size="14.00">Does not have a type</text>
<polygon fill="none" stroke="black" points="250,-148.5 250,-196.5 514,-196.5 514,-148.5 250,-148.5"/>
<text text-anchor="start" x="257" y="-178.3" font-family="Helvetica,Arial,sans-serif" font-size="14.00">&#45; dependency 1</text>
<text text-anchor="start" x="257" y="-159.3" font-family="Helvetica,Arial,sans-serif" font-size="14.00">&#45; dependency 2</text>
</g>
<!-- maindep2&#45;&gt;main -->
<g id="edge4" class="edge">
<title>maindep2:header&#45;&gt;main:dep2</title>
<path fill="none" stroke="#7ac5cd" d="M250,-276.5C222.85,-276.5 236.25,-320.12 219.87,-331.7"/>
<polygon fill="#7ac5cd" stroke="#7ac5cd" points="218.67,-328.41 210,-334.5 220.58,-335.14 218.67,-328.41"/>
</g>
<!-- maindep2dep1 -->
<g id="node4" class="node">
<title>maindep2dep1</title>
<polygon fill="lightyellow" stroke="transparent" stroke-width="2" points="739,-252 550,-252 550,-135 739,-135 739,-252"/>
<polygon fill="none" stroke="black" points="550.5,-226.5 550.5,-251.5 739.5,-251.5 739.5,-226.5 550.5,-226.5"/>
<text text-anchor="start" x="555.5" y="-236.3" font-family="Helvetica,Arial,sans-serif" font-weight="bold" font-size="14.00">Dependency</text>
<text text-anchor="start" x="636.5" y="-236.3" font-family="Helvetica,Arial,sans-serif" font-size="14.00"> </text>
<text text-anchor="start" x="640.5" y="-236.3" font-family="Helvetica,Arial,sans-serif" font-size="8.00" fill="gray">Depth: 2</text>
<polygon fill="none" stroke="black" points="550.5,-159.5 550.5,-226.5 739.5,-226.5 739.5,-159.5 550.5,-159.5"/>
<text text-anchor="start" x="557.5" y="-208.3" font-family="Helvetica,Arial,sans-serif" font-size="14.00">Current value: </text>
<text text-anchor="start" x="689.5" y="-208.3" font-family="Helvetica,Arial,sans-serif" font-size="14.00">2 </text>
<text text-anchor="start" x="557.5" y="-189.3" font-family="Helvetica,Arial,sans-serif" font-size="14.00">Metadata: </text>
<text text-anchor="start" x="689.5" y="-189.3" font-family="Helvetica,Arial,sans-serif" font-size="14.00">signal2</text>
<text text-anchor="start" x="557.5" y="-170.3" font-family="Helvetica,Arial,sans-serif" font-size="14.00">Does not have a type</text>
<polygon fill="none" stroke="black" points="550.5,-134.5 550.5,-159.5 739.5,-159.5 739.5,-134.5 550.5,-134.5"/>
<text text-anchor="start" x="555.5" y="-143.3" font-family="Helvetica,Arial,sans-serif" font-size="14.00">No dependencies</text>
</g>
<!-- maindep2dep1&#45;&gt;maindep2 -->
<g id="edge2" class="edge">
<title>maindep2dep1:header&#45;&gt;maindep2:dep1</title>
<path fill="none" stroke="black" d="M550,-239.5C522.85,-239.5 536.25,-195.88 519.87,-184.3"/>
<polygon fill="black" stroke="black" points="520.58,-180.86 510,-181.5 518.67,-187.59 520.58,-180.86"/>
</g>
<!-- maindep2dep2 -->
<g id="node5" class="node">
<title>maindep2dep2</title>
<polygon fill="lightyellow" stroke="transparent" stroke-width="2" points="739,-117 550,-117 550,0 739,0 739,-117"/>
<polygon fill="none" stroke="black" points="550.5,-91.5 550.5,-116.5 739.5,-116.5 739.5,-91.5 550.5,-91.5"/>
<text text-anchor="start" x="555.5" y="-101.3" font-family="Helvetica,Arial,sans-serif" font-weight="bold" font-size="14.00">Dependency</text>
<text text-anchor="start" x="636.5" y="-101.3" font-family="Helvetica,Arial,sans-serif" font-size="14.00"> </text>
<text text-anchor="start" x="640.5" y="-101.3" font-family="Helvetica,Arial,sans-serif" font-size="8.00" fill="gray">Depth: 2</text>
<polygon fill="none" stroke="black" points="550.5,-24.5 550.5,-91.5 739.5,-91.5 739.5,-24.5 550.5,-24.5"/>
<text text-anchor="start" x="557.5" y="-73.3" font-family="Helvetica,Arial,sans-serif" font-size="14.00">Current value: </text>
<text text-anchor="start" x="689.5" y="-73.3" font-family="Helvetica,Arial,sans-serif" font-size="14.00">3 </text>
<text text-anchor="start" x="557.5" y="-54.3" font-family="Helvetica,Arial,sans-serif" font-size="14.00">Metadata: </text>
<text text-anchor="start" x="689.5" y="-54.3" font-family="Helvetica,Arial,sans-serif" font-size="14.00">signal3</text>
<text text-anchor="start" x="557.5" y="-35.3" font-family="Helvetica,Arial,sans-serif" font-size="14.00">Does not have a type</text>
<polygon fill="none" stroke="black" points="550.5,0.5 550.5,-24.5 739.5,-24.5 739.5,0.5 550.5,0.5"/>
<text text-anchor="start" x="555.5" y="-8.3" font-family="Helvetica,Arial,sans-serif" font-size="14.00">No dependencies</text>
</g>
<!-- maindep2dep2&#45;&gt;maindep2 -->
<g id="edge3" class="edge">
<title>maindep2dep2:header&#45;&gt;maindep2:dep2</title>
<path fill="none" stroke="black" d="M550,-104.5C522.85,-104.5 536.25,-148.12 519.87,-159.7"/>
<polygon fill="black" stroke="black" points="518.67,-156.41 510,-162.5 520.58,-163.14 518.67,-156.41"/>
</g>
</g>
</svg>
