<?xml version="1.0" encoding="UTF-8" standalone="no"?>
<!DOCTYPE svg PUBLIC "-//W3C//DTD SVG 1.1//EN"
 "http://www.w3.org/Graphics/SVG/1.1/DTD/svg11.dtd">
<!-- Generated by graphviz version 2.50.0 (20211204.2007)
 -->
<!-- Title: G Pages: 1 -->
<svg width="865pt" height="404pt"
 viewBox="0.00 0.00 865.00 403.50" xmlns="http://www.w3.org/2000/svg" xmlns:xlink="http://www.w3.org/1999/xlink">
<g id="graph0" class="graph" transform="scale(1 1) rotate(0) translate(4 399.5)">
<title>G</title>
<polygon fill="white" stroke="transparent" points="-4,4 -4,-399.5 861,-399.5 861,4 -4,4"/>
<!-- main -->
<g id="node1" class="node">
<title>main</title>
<polygon fill="white" stroke="transparent" points="380,-395.5 214,-395.5 214,-207.5 380,-207.5 380,-395.5"/>
<polygon fill="none" stroke="black" points="214,-370.5 214,-395.5 380,-395.5 380,-370.5 214,-370.5"/>
<text text-anchor="start" x="219" y="-380.3" font-family="Helvetica,Arial,sans-serif" font-weight="bold" font-size="14.00">MainSignal</text>
<text text-anchor="start" x="292" y="-380.3" font-family="Helvetica,Arial,sans-serif" font-size="14.00"> </text>
<polygon fill="none" stroke="black" points="214,-303.5 214,-370.5 380,-370.5 380,-303.5 214,-303.5"/>
<text text-anchor="start" x="221" y="-352.3" font-family="Helvetica,Arial,sans-serif" font-size="14.00">Does not have a value</text>
<text text-anchor="start" x="221" y="-333.3" font-family="Helvetica,Arial,sans-serif" font-size="14.00">Does not have metadata</text>
<text text-anchor="start" x="221" y="-314.3" font-family="Helvetica,Arial,sans-serif" font-size="14.00">Does not have a type</text>
<polygon fill="none" stroke="black" points="214,-255.5 214,-303.5 380,-303.5 380,-255.5 214,-255.5"/>
<text text-anchor="start" x="221" y="-285.3" font-family="Helvetica,Arial,sans-serif" font-size="14.00">&#45; dependency 1</text>
<text text-anchor="start" x="221" y="-266.3" font-family="Helvetica,Arial,sans-serif" font-size="14.00">&#45; dependency 2</text>
<polygon fill="none" stroke="black" points="214,-207.5 214,-255.5 380,-255.5 380,-207.5 214,-207.5"/>
<text text-anchor="start" x="221" y="-237.3" font-family="Helvetica,Arial,sans-serif" font-size="14.00">&#45; listener 1 </text>
<text text-anchor="start" x="221" y="-218.3" font-family="Helvetica,Arial,sans-serif" font-size="14.00">&#45; listener 2 (not listening)</text>
</g>
<!-- mainlistener1 -->
<g id="node7" class="node">
<title>mainlistener1</title>
<polygon fill="white" stroke="transparent" points="172,-311 6,-311 6,-194 172,-194 172,-311"/>
<polygon fill="none" stroke="black" points="6,-285.5 6,-310.5 172,-310.5 172,-285.5 6,-285.5"/>
<text text-anchor="start" x="11" y="-295.3" font-family="Helvetica,Arial,sans-serif" font-weight="bold" font-size="14.00">Listener</text>
<text text-anchor="start" x="64" y="-295.3" font-family="Helvetica,Arial,sans-serif" font-size="14.00"> </text>
<polygon fill="none" stroke="black" points="6,-218.5 6,-285.5 172,-285.5 172,-218.5 6,-218.5"/>
<text text-anchor="start" x="13" y="-267.3" font-family="Helvetica,Arial,sans-serif" font-size="14.00">Does not have a value</text>
<text text-anchor="start" x="13" y="-248.3" font-family="Helvetica,Arial,sans-serif" font-size="14.00">Does not have metadata</text>
<text text-anchor="start" x="13" y="-229.3" font-family="Helvetica,Arial,sans-serif" font-size="14.00">Does not have a type</text>
<polygon fill="none" stroke="black" points="6,-193.5 6,-218.5 172,-218.5 172,-193.5 6,-193.5"/>
<text text-anchor="start" x="11" y="-202.3" font-family="Helvetica,Arial,sans-serif" font-size="14.00">1 dependencies</text>
</g>
<!-- main&#45;&gt;mainlistener1 -->
<g id="edge6" class="edge">
<title>main:listener1&#45;&gt;mainlistener1:header</title>
<path fill="none" stroke="black" d="M218,-240.5C189.45,-240.5 201.39,-284.91 182.96,-296.01"/>
<polygon fill="black" stroke="black" points="181.85,-292.68 173,-298.5 183.55,-299.47 181.85,-292.68"/>
</g>
<!-- mainlistener2 -->
<g id="node8" class="node">
<title>mainlistener2</title>
<polygon fill="lightyellow" stroke="transparent" stroke-width="2" points="178,-176 0,-176 0,-59 178,-59 178,-176"/>
<polygon fill="none" stroke="black" points="0,-150.5 0,-175.5 178,-175.5 178,-150.5 0,-150.5"/>
<text text-anchor="start" x="5" y="-160.3" font-family="Helvetica,Arial,sans-serif" font-weight="bold" font-size="14.00">Listener</text>
<text text-anchor="start" x="58" y="-160.3" font-family="Helvetica,Arial,sans-serif" font-size="14.00"> </text>
<polygon fill="none" stroke="black" points="0,-83.5 0,-150.5 178,-150.5 178,-83.5 0,-83.5"/>
<text text-anchor="start" x="7" y="-132.3" font-family="Helvetica,Arial,sans-serif" font-size="14.00">Current value: </text>
<text text-anchor="start" x="159" y="-132.3" font-family="Helvetica,Arial,sans-serif" font-size="14.00">2 </text>
<text text-anchor="start" x="7" y="-113.3" font-family="Helvetica,Arial,sans-serif" font-size="14.00">Does not have metadata</text>
<text text-anchor="start" x="7" y="-94.3" font-family="Helvetica,Arial,sans-serif" font-size="14.00">Does not have a type</text>
<polygon fill="none" stroke="black" points="0,-58.5 0,-83.5 178,-83.5 178,-58.5 0,-58.5"/>
<text text-anchor="start" x="5" y="-67.3" font-family="Helvetica,Arial,sans-serif" font-size="14.00">1 dependencies</text>
</g>
<!-- main&#45;&gt;mainlistener2 -->
<g id="edge7" class="edge">
<title>main:listener2&#45;&gt;mainlistener2:header</title>
<path fill="none" stroke="#666666" stroke-dasharray="1,5" d="M218,-221.5C190.85,-221.5 204.25,-177.88 187.87,-166.3"/>
<polygon fill="#666666" stroke="#666666" points="188.58,-162.86 178,-163.5 186.67,-169.59 188.58,-162.86"/>
</g>
<!-- maindep1 -->
<g id="node2" class="node">
<title>maindep1</title>
<polygon fill="lightblue" stroke="transparent" stroke-width="2" points="643,-370.5 416,-370.5 416,-230.5 643,-230.5 643,-370.5"/>
<polygon fill="none" stroke="black" points="416.5,-345.5 416.5,-370.5 643.5,-370.5 643.5,-345.5 416.5,-345.5"/>
<text text-anchor="start" x="421.5" y="-355.3" font-family="Helvetica,Arial,sans-serif" font-weight="bold" font-size="14.00">Dependency</text>
<text text-anchor="start" x="502.5" y="-355.3" font-family="Helvetica,Arial,sans-serif" font-size="14.00"> </text>
<text text-anchor="start" x="506.5" y="-355.3" font-family="Helvetica,Arial,sans-serif" font-size="8.00" fill="gray">Depth: 1</text>
<polygon fill="none" stroke="black" points="416.5,-278.5 416.5,-345.5 643.5,-345.5 643.5,-278.5 416.5,-278.5"/>
<text text-anchor="start" x="423.5" y="-327.3" font-family="Helvetica,Arial,sans-serif" font-size="14.00">Does not have a value</text>
<text text-anchor="start" x="575.5" y="-327.3" font-family="Helvetica,Arial,sans-serif" font-size="14.00"> (pending)</text>
<text text-anchor="start" x="423.5" y="-308.3" font-family="Helvetica,Arial,sans-serif" font-size="14.00">Does not have metadata</text>
<text text-anchor="start" x="423.5" y="-289.3" font-family="Helvetica,Arial,sans-serif" font-size="14.00">Does not have a type</text>
<polygon fill="none" stroke="black" points="416.5,-230.5 416.5,-278.5 643.5,-278.5 643.5,-230.5 416.5,-230.5"/>
<text text-anchor="start" x="423.5" y="-260.3" font-family="Helvetica,Arial,sans-serif" font-size="14.00">&#45; dependency 1</text>
<text text-anchor="start" x="423.5" y="-241.3" font-family="Helvetica,Arial,sans-serif" font-size="14.00">&#45; dependency 2</text>
</g>
<!-- maindep1&#45;&gt;main -->
<g id="edge3" class="edge">
<title>maindep1:header&#45;&gt;main:dep1</title>
<path fill="none" stroke="#999999" stroke-dasharray="5,2" d="M416,-358.5C384.23,-358.5 405.52,-303.46 385.78,-290.99"/>
<polygon fill="#999999" stroke="#999999" points="386.55,-287.58 376,-288.5 384.83,-294.36 386.55,-287.58"/>
</g>
<!-- maindep1dep1 -->
<g id="node3" class="node">
<title>maindep1dep1</title>
<polygon fill="lightyellow" stroke="transparent" stroke-width="2" points="857,-389 679,-389 679,-272 857,-272 857,-389"/>
<polygon fill="none" stroke="black" points="679,-363.5 679,-388.5 857,-388.5 857,-363.5 679,-363.5"/>
<text text-anchor="start" x="684" y="-373.3" font-family="Helvetica,Arial,sans-serif" font-weight="bold" font-size="14.00">Dependency</text>
<text text-anchor="start" x="765" y="-373.3" font-family="Helvetica,Arial,sans-serif" font-size="14.00"> </text>
<text text-anchor="start" x="769" y="-373.3" font-family="Helvetica,Arial,sans-serif" font-size="8.00" fill="gray">Depth: 2</text>
<polygon fill="none" stroke="black" points="679,-296.5 679,-363.5 857,-363.5 857,-296.5 679,-296.5"/>
<text text-anchor="start" x="686" y="-345.3" font-family="Helvetica,Arial,sans-serif" font-size="14.00">Current value: </text>
<text text-anchor="start" x="838" y="-345.3" font-family="Helvetica,Arial,sans-serif" font-size="14.00">3 </text>
<text text-anchor="start" x="686" y="-326.3" font-family="Helvetica,Arial,sans-serif" font-size="14.00">Does not have metadata</text>
<text text-anchor="start" x="686" y="-307.3" font-family="Helvetica,Arial,sans-serif" font-size="14.00">Does not have a type</text>
<polygon fill="none" stroke="black" points="679,-271.5 679,-296.5 857,-296.5 857,-271.5 679,-271.5"/>
<text text-anchor="start" x="684" y="-280.3" font-family="Helvetica,Arial,sans-serif" font-size="14.00">No dependencies</text>
</g>
<!-- maindep1dep1&#45;&gt;maindep1 -->
<g id="edge1" class="edge">
<title>maindep1dep1:header&#45;&gt;maindep1:dep1</title>
<path fill="none" stroke="#1874cd" d="M679,-376.5C629.75,-376.5 683.43,-279.65 649.46,-265.27"/>
<polygon fill="#1874cd" stroke="#1874cd" points="649.96,-261.81 639.5,-263.5 648.73,-268.7 649.96,-261.81"/>
</g>
<!-- maindep1dep2 -->
<g id="node4" class="node">
<title>maindep1dep2</title>
<polygon fill="lightyellow" stroke="transparent" stroke-width="2" points="857,-254 679,-254 679,-137 857,-137 857,-254"/>
<polygon fill="none" stroke="black" points="679,-228.5 679,-253.5 857,-253.5 857,-228.5 679,-228.5"/>
<text text-anchor="start" x="684" y="-238.3" font-family="Helvetica,Arial,sans-serif" font-weight="bold" font-size="14.00">Dependency</text>
<text text-anchor="start" x="765" y="-238.3" font-family="Helvetica,Arial,sans-serif" font-size="14.00"> </text>
<text text-anchor="start" x="769" y="-238.3" font-family="Helvetica,Arial,sans-serif" font-size="8.00" fill="gray">Depth: 2</text>
<polygon fill="none" stroke="black" points="679,-161.5 679,-228.5 857,-228.5 857,-161.5 679,-161.5"/>
<text text-anchor="start" x="686" y="-210.3" font-family="Helvetica,Arial,sans-serif" font-size="14.00">Current value: </text>
<text text-anchor="start" x="838" y="-210.3" font-family="Helvetica,Arial,sans-serif" font-size="14.00">4 </text>
<text text-anchor="start" x="686" y="-191.3" font-family="Helvetica,Arial,sans-serif" font-size="14.00">Does not have metadata</text>
<text text-anchor="start" x="686" y="-172.3" font-family="Helvetica,Arial,sans-serif" font-size="14.00">Does not have a type</text>
<polygon fill="none" stroke="black" points="679,-136.5 679,-161.5 857,-161.5 857,-136.5 679,-136.5"/>
<text text-anchor="start" x="684" y="-145.3" font-family="Helvetica,Arial,sans-serif" font-size="14.00">No dependencies</text>
</g>
<!-- maindep1dep2&#45;&gt;maindep1 -->
<g id="edge2" class="edge">
<title>maindep1dep2:header&#45;&gt;maindep1:dep2</title>
<path fill="none" stroke="#7ac5cd" stroke-dasharray="5,2" d="M679,-241.5C665.38,-241.5 659.73,-243.29 649.73,-244.11"/>
<polygon fill="#7ac5cd" stroke="#7ac5cd" points="649.36,-240.62 639.5,-244.5 649.63,-247.61 649.36,-240.62"/>
</g>
<!-- maindep2 -->
<g id="node5" class="node">
<title>maindep2</title>
<polygon fill="white" stroke="transparent" points="612.5,-212 446.5,-212 446.5,-91 612.5,-91 612.5,-212"/>
<polygon fill="none" stroke="black" points="446.5,-186.5 446.5,-211.5 612.5,-211.5 612.5,-186.5 446.5,-186.5"/>
<text text-anchor="start" x="451.5" y="-196.3" font-family="Helvetica,Arial,sans-serif" font-weight="bold" font-size="14.00">Dependency</text>
<text text-anchor="start" x="532.5" y="-196.3" font-family="Helvetica,Arial,sans-serif" font-size="14.00"> </text>
<text text-anchor="start" x="536.5" y="-196.3" font-family="Helvetica,Arial,sans-serif" font-size="8.00" fill="gray">Depth: 1</text>
<polygon fill="none" stroke="black" points="446.5,-119.5 446.5,-186.5 612.5,-186.5 612.5,-119.5 446.5,-119.5"/>
<text text-anchor="start" x="453.5" y="-168.3" font-family="Helvetica,Arial,sans-serif" font-size="14.00">Does not have a value</text>
<text text-anchor="start" x="453.5" y="-149.3" font-family="Helvetica,Arial,sans-serif" font-size="14.00">Does not have metadata</text>
<text text-anchor="start" x="453.5" y="-130.3" font-family="Helvetica,Arial,sans-serif" font-size="14.00">Does not have a type</text>
<polygon fill="none" stroke="black" points="446.5,-90.5 446.5,-119.5 612.5,-119.5 612.5,-90.5 446.5,-90.5"/>
<text text-anchor="start" x="453.5" y="-101.3" font-family="Helvetica,Arial,sans-serif" font-size="14.00">&#45; dependency 1</text>
</g>
<!-- maindep2&#45;&gt;main -->
<g id="edge5" class="edge">
<title>maindep2:header&#45;&gt;main:dep2</title>
<path fill="none" stroke="black" stroke-dasharray="5,2" d="M445.5,-199.5C405.43,-199.5 417.17,-257.99 386.01,-268.04"/>
<polygon fill="black" stroke="black" points="385.39,-264.59 376,-269.5 386.4,-271.52 385.39,-264.59"/>
</g>
<!-- maindep2dep1 -->
<g id="node6" class="node">
<title>maindep2dep1</title>
<polygon fill="white" stroke="transparent" points="851,-117 685,-117 685,0 851,0 851,-117"/>
<polygon fill="none" stroke="black" points="685,-91.5 685,-116.5 851,-116.5 851,-91.5 685,-91.5"/>
<text text-anchor="start" x="690" y="-101.3" font-family="Helvetica,Arial,sans-serif" font-weight="bold" font-size="14.00">Dependency</text>
<text text-anchor="start" x="771" y="-101.3" font-family="Helvetica,Arial,sans-serif" font-size="14.00"> </text>
<text text-anchor="start" x="775" y="-101.3" font-family="Helvetica,Arial,sans-serif" font-size="8.00" fill="gray">Depth: 2</text>
<polygon fill="none" stroke="black" points="685,-24.5 685,-91.5 851,-91.5 851,-24.5 685,-24.5"/>
<text text-anchor="start" x="692" y="-73.3" font-family="Helvetica,Arial,sans-serif" font-size="14.00">Does not have a value</text>
<text text-anchor="start" x="692" y="-54.3" font-family="Helvetica,Arial,sans-serif" font-size="14.00">Does not have metadata</text>
<text text-anchor="start" x="692" y="-35.3" font-family="Helvetica,Arial,sans-serif" font-size="14.00">Does not have a type</text>
<polygon fill="none" stroke="black" points="685,0.5 685,-24.5 851,-24.5 851,0.5 685,0.5"/>
<text text-anchor="start" x="690" y="-8.3" font-family="Helvetica,Arial,sans-serif" font-size="14.00">No dependencies</text>
</g>
<!-- maindep2dep1&#45;&gt;maindep2 -->
<g id="edge4" class="edge">
<title>maindep2dep1:header&#45;&gt;maindep2:dep1</title>
<path fill="none" stroke="black" d="M684,-104.5C654.11,-104.5 644.19,-104.5 618.67,-104.5"/>
<polygon fill="black" stroke="black" points="618.5,-101 608.5,-104.5 618.5,-108 618.5,-101"/>
</g>
</g>
</svg>
