<?xml version="1.0" encoding="UTF-8" standalone="no"?>
<!DOCTYPE svg PUBLIC "-//W3C//DTD SVG 1.1//EN"
 "http://www.w3.org/Graphics/SVG/1.1/DTD/svg11.dtd">
<!-- Generated by graphviz version 2.50.0 (20211204.2007)
 -->
<!-- Title: G Pages: 1 -->
<svg width="607pt" height="393pt"
 viewBox="0.00 0.00 607.00 393.00" xmlns="http://www.w3.org/2000/svg" xmlns:xlink="http://www.w3.org/1999/xlink">
<g id="graph0" class="graph" transform="scale(1 1) rotate(0) translate(4 389)">
<title>G</title>
<polygon fill="white" stroke="transparent" points="-4,4 -4,-389 603,-389 603,4 -4,4"/>
<!-- main -->
<g id="node1" class="node">
<title>main</title>
<polygon fill="lightyellow" stroke="transparent" stroke-width="2" points="152,-385 0,-385 0,-239 152,-239 152,-385"/>
<polygon fill="none" stroke="black" points="0,-360 0,-385 152,-385 152,-360 0,-360"/>
<text text-anchor="start" x="5" y="-369.8" font-family="Helvetica,Arial,sans-serif" font-weight="bold" font-size="14.00">MainSignal</text>
<text text-anchor="start" x="78" y="-369.8" font-family="Helvetica,Arial,sans-serif" font-size="14.00"> </text>
<polygon fill="none" stroke="black" points="0,-312 0,-360 152,-360 152,-312 0,-312"/>
<text text-anchor="start" x="7" y="-341.8" font-family="Helvetica,Arial,sans-serif" font-size="14.00">Current value: </text>
<text text-anchor="start" x="100" y="-341.8" font-family="Helvetica,Arial,sans-serif" font-size="14.00">6 </text>
<text text-anchor="start" x="7" y="-322.8" font-family="Helvetica,Arial,sans-serif" font-size="14.00">Variant: </text>
<text text-anchor="start" x="100" y="-322.8" font-family="Helvetica,Arial,sans-serif" font-size="14.00">derived</text>
<polygon fill="none" stroke="black" points="0,-264 0,-312 152,-312 152,-264 0,-264"/>
<text text-anchor="start" x="7" y="-293.8" font-family="Helvetica,Arial,sans-serif" font-size="14.00">&#45; dependency 1</text>
<text text-anchor="start" x="7" y="-274.8" font-family="Helvetica,Arial,sans-serif" font-size="14.00">&#45; dependency 2</text>
<polygon fill="none" stroke="black" points="0,-239 0,-264 152,-264 152,-239 0,-239"/>
<text text-anchor="start" x="5" y="-247.8" font-family="Helvetica,Arial,sans-serif" font-size="14.00">No listeners</text>
</g>
<!-- maindep1 -->
<g id="node2" class="node">
<title>maindep1</title>
<polygon fill="lightyellow" stroke="transparent" stroke-width="2" points="375.5,-358 225.5,-358 225.5,-260 375.5,-260 375.5,-358"/>
<polygon fill="none" stroke="black" points="225.5,-333 225.5,-358 375.5,-358 375.5,-333 225.5,-333"/>
<text text-anchor="start" x="230.5" y="-342.8" font-family="Helvetica,Arial,sans-serif" font-weight="bold" font-size="14.00">Dependency</text>
<text text-anchor="start" x="311.5" y="-342.8" font-family="Helvetica,Arial,sans-serif" font-size="14.00"> </text>
<text text-anchor="start" x="315.5" y="-342.8" font-family="Helvetica,Arial,sans-serif" font-size="8.00" fill="gray">Depth: 1</text>
<polygon fill="none" stroke="black" points="225.5,-285 225.5,-333 375.5,-333 375.5,-285 225.5,-285"/>
<text text-anchor="start" x="232.5" y="-314.8" font-family="Helvetica,Arial,sans-serif" font-size="14.00">Current value: </text>
<text text-anchor="start" x="325.5" y="-314.8" font-family="Helvetica,Arial,sans-serif" font-size="14.00">1 </text>
<text text-anchor="start" x="232.5" y="-295.8" font-family="Helvetica,Arial,sans-serif" font-size="14.00">Variant: </text>
<text text-anchor="start" x="325.5" y="-295.8" font-family="Helvetica,Arial,sans-serif" font-size="14.00">signal1</text>
<polygon fill="none" stroke="black" points="225.5,-260 225.5,-285 375.5,-285 375.5,-260 225.5,-260"/>
<text text-anchor="start" x="230.5" y="-268.8" font-family="Helvetica,Arial,sans-serif" font-size="14.00">No dependencies</text>
</g>
<!-- maindep1&#45;&gt;main -->
<g id="edge1" class="edge">
<title>maindep1:header&#45;&gt;main:dep1</title>
<path fill="none" stroke="black" d="M224.5,-346C187.91,-346 187.97,-305.76 158.25,-298.21"/>
<polygon fill="black" stroke="black" points="158.34,-294.7 148,-297 157.52,-301.65 158.34,-294.7"/>
</g>
<!-- maindep2 -->
<g id="node3" class="node">
<title>maindep2</title>
<polygon fill="lightyellow" stroke="transparent" stroke-width="2" points="413,-241.5 188,-241.5 188,-120.5 413,-120.5 413,-241.5"/>
<polygon fill="none" stroke="black" points="188.5,-216 188.5,-241 413.5,-241 413.5,-216 188.5,-216"/>
<text text-anchor="start" x="193.5" y="-225.8" font-family="Helvetica,Arial,sans-serif" font-weight="bold" font-size="14.00">Dependency</text>
<text text-anchor="start" x="274.5" y="-225.8" font-family="Helvetica,Arial,sans-serif" font-size="14.00"> </text>
<text text-anchor="start" x="278.5" y="-225.8" font-family="Helvetica,Arial,sans-serif" font-size="8.00" fill="gray">Depth: 1</text>
<polygon fill="none" stroke="black" points="188.5,-168 188.5,-216 413.5,-216 413.5,-168 188.5,-168"/>
<text text-anchor="start" x="195.5" y="-197.8" font-family="Helvetica,Arial,sans-serif" font-size="14.00">Current value: </text>
<text text-anchor="start" x="288.5" y="-197.8" font-family="Helvetica,Arial,sans-serif" font-size="14.00">5 </text>
<text text-anchor="start" x="195.5" y="-178.8" font-family="Helvetica,Arial,sans-serif" font-size="14.00">Variant: </text>
<text text-anchor="start" x="288.5" y="-178.8" font-family="Helvetica,Arial,sans-serif" font-size="14.00">intermediate_signal</text>
<polygon fill="none" stroke="black" points="188.5,-120 188.5,-168 413.5,-168 413.5,-120 188.5,-120"/>
<text text-anchor="start" x="195.5" y="-149.8" font-family="Helvetica,Arial,sans-serif" font-size="14.00">&#45; dependency 1</text>
<text text-anchor="start" x="195.5" y="-130.8" font-family="Helvetica,Arial,sans-serif" font-size="14.00">&#45; dependency 2</text>
</g>
<!-- maindep2&#45;&gt;main -->
<g id="edge4" class="edge">
<title>maindep2:header&#45;&gt;main:dep2</title>
<path fill="none" stroke="#999999" d="M188,-229C164.06,-229 172.27,-264.53 157.88,-275.08"/>
<polygon fill="#999999" stroke="#999999" points="156.6,-271.81 148,-278 158.58,-278.52 156.6,-271.81"/>
</g>
<!-- maindep2dep1 -->
<g id="node4" class="node">
<title>maindep2dep1</title>
<polygon fill="lightyellow" stroke="transparent" stroke-width="2" points="599,-214 449,-214 449,-116 599,-116 599,-214"/>
<polygon fill="none" stroke="black" points="449,-189 449,-214 599,-214 599,-189 449,-189"/>
<text text-anchor="start" x="454" y="-198.8" font-family="Helvetica,Arial,sans-serif" font-weight="bold" font-size="14.00">Dependency</text>
<text text-anchor="start" x="535" y="-198.8" font-family="Helvetica,Arial,sans-serif" font-size="14.00"> </text>
<text text-anchor="start" x="539" y="-198.8" font-family="Helvetica,Arial,sans-serif" font-size="8.00" fill="gray">Depth: 2</text>
<polygon fill="none" stroke="black" points="449,-141 449,-189 599,-189 599,-141 449,-141"/>
<text text-anchor="start" x="456" y="-170.8" font-family="Helvetica,Arial,sans-serif" font-size="14.00">Current value: </text>
<text text-anchor="start" x="549" y="-170.8" font-family="Helvetica,Arial,sans-serif" font-size="14.00">2 </text>
<text text-anchor="start" x="456" y="-151.8" font-family="Helvetica,Arial,sans-serif" font-size="14.00">Variant: </text>
<text text-anchor="start" x="549" y="-151.8" font-family="Helvetica,Arial,sans-serif" font-size="14.00">signal2</text>
<polygon fill="none" stroke="black" points="449,-116 449,-141 599,-141 599,-116 449,-116"/>
<text text-anchor="start" x="454" y="-124.8" font-family="Helvetica,Arial,sans-serif" font-size="14.00">No dependencies</text>
</g>
<!-- maindep2dep1&#45;&gt;maindep2 -->
<g id="edge2" class="edge">
<title>maindep2dep1:header&#45;&gt;maindep2:dep1</title>
<path fill="none" stroke="black" d="M449,-202C425.18,-202 433.57,-166.47 419.31,-155.92"/>
<polygon fill="black" stroke="black" points="420.08,-152.5 409.5,-153 418.09,-159.21 420.08,-152.5"/>
</g>
<!-- maindep2dep2 -->
<g id="node5" class="node">
<title>maindep2dep2</title>
<polygon fill="lightyellow" stroke="transparent" stroke-width="2" points="599,-98 449,-98 449,0 599,0 599,-98"/>
<polygon fill="none" stroke="black" points="449,-73 449,-98 599,-98 599,-73 449,-73"/>
<text text-anchor="start" x="454" y="-82.8" font-family="Helvetica,Arial,sans-serif" font-weight="bold" font-size="14.00">Dependency</text>
<text text-anchor="start" x="535" y="-82.8" font-family="Helvetica,Arial,sans-serif" font-size="14.00"> </text>
<text text-anchor="start" x="539" y="-82.8" font-family="Helvetica,Arial,sans-serif" font-size="8.00" fill="gray">Depth: 2</text>
<polygon fill="none" stroke="black" points="449,-25 449,-73 599,-73 599,-25 449,-25"/>
<text text-anchor="start" x="456" y="-54.8" font-family="Helvetica,Arial,sans-serif" font-size="14.00">Current value: </text>
<text text-anchor="start" x="549" y="-54.8" font-family="Helvetica,Arial,sans-serif" font-size="14.00">3 </text>
<text text-anchor="start" x="456" y="-35.8" font-family="Helvetica,Arial,sans-serif" font-size="14.00">Variant: </text>
<text text-anchor="start" x="549" y="-35.8" font-family="Helvetica,Arial,sans-serif" font-size="14.00">signal3</text>
<polygon fill="none" stroke="black" points="449,0 449,-25 599,-25 599,0 449,0"/>
<text text-anchor="start" x="454" y="-8.8" font-family="Helvetica,Arial,sans-serif" font-size="14.00">No dependencies</text>
</g>
<!-- maindep2dep2&#45;&gt;maindep2 -->
<g id="edge3" class="edge">
<title>maindep2dep2:header&#45;&gt;maindep2:dep2</title>
<path fill="none" stroke="black" d="M449,-86C425.47,-86 433.41,-120.81 419.22,-131.14"/>
<polygon fill="black" stroke="black" points="418.11,-127.82 409.5,-134 420.08,-134.54 418.11,-127.82"/>
</g>
</g>
</svg>
