<?xml version="1.0" encoding="UTF-8" standalone="no"?>
<!DOCTYPE svg PUBLIC "-//W3C//DTD SVG 1.1//EN"
 "http://www.w3.org/Graphics/SVG/1.1/DTD/svg11.dtd">
<!-- Generated by graphviz version 2.50.0 (20211204.2007)
 -->
<!-- Title: G Pages: 1 -->
<svg width="842pt" height="347pt"
 viewBox="0.00 0.00 842.00 346.50" xmlns="http://www.w3.org/2000/svg" xmlns:xlink="http://www.w3.org/1999/xlink">
<g id="graph0" class="graph" transform="scale(1 1) rotate(0) translate(4 342.5)">
<title>G</title>
<polygon fill="white" stroke="transparent" points="-4,4 -4,-342.5 838,-342.5 838,4 -4,4"/>
<!-- main -->
<g id="node1" class="node">
<title>main</title>
<polygon fill="white" stroke="transparent" points="359,-336 197,-336 197,-167 359,-167 359,-336"/>
<polygon fill="none" stroke="black" points="197,-310.5 197,-335.5 359,-335.5 359,-310.5 197,-310.5"/>
<text text-anchor="start" x="202" y="-320.3" font-family="Helvetica,Arial,sans-serif" font-weight="bold" font-size="14.00">MainSignal</text>
<text text-anchor="start" x="275" y="-320.3" font-family="Helvetica,Arial,sans-serif" font-size="14.00"> </text>
<polygon fill="none" stroke="black" points="197,-262.5 197,-310.5 359,-310.5 359,-262.5 197,-262.5"/>
<text text-anchor="start" x="204" y="-292.3" font-family="Helvetica,Arial,sans-serif" font-size="14.00">Does not have a value</text>
<text text-anchor="start" x="204" y="-273.3" font-family="Helvetica,Arial,sans-serif" font-size="14.00">Does not have a variant</text>
<polygon fill="none" stroke="black" points="197,-214.5 197,-262.5 359,-262.5 359,-214.5 197,-214.5"/>
<text text-anchor="start" x="204" y="-244.3" font-family="Helvetica,Arial,sans-serif" font-size="14.00">&#45; dependency 1</text>
<text text-anchor="start" x="204" y="-225.3" font-family="Helvetica,Arial,sans-serif" font-size="14.00">&#45; dependency 2</text>
<polygon fill="none" stroke="black" points="197,-166.5 197,-214.5 359,-214.5 359,-166.5 197,-166.5"/>
<text text-anchor="start" x="204" y="-196.3" font-family="Helvetica,Arial,sans-serif" font-size="14.00">&#45; listener 1 </text>
<text text-anchor="start" x="204" y="-177.3" font-family="Helvetica,Arial,sans-serif" font-size="14.00">&#45; listener 2 (not listening)</text>
</g>
<!-- mainlistener1 -->
<g id="node7" class="node">
<title>mainlistener1</title>
<polygon fill="white" stroke="transparent" points="161,-260.5 0,-260.5 0,-162.5 161,-162.5 161,-260.5"/>
<polygon fill="none" stroke="black" points="0.5,-235.5 0.5,-260.5 161.5,-260.5 161.5,-235.5 0.5,-235.5"/>
<text text-anchor="start" x="5.5" y="-245.3" font-family="Helvetica,Arial,sans-serif" font-weight="bold" font-size="14.00">Listener</text>
<text text-anchor="start" x="58.5" y="-245.3" font-family="Helvetica,Arial,sans-serif" font-size="14.00"> </text>
<polygon fill="none" stroke="black" points="0.5,-187.5 0.5,-235.5 161.5,-235.5 161.5,-187.5 0.5,-187.5"/>
<text text-anchor="start" x="7.5" y="-217.3" font-family="Helvetica,Arial,sans-serif" font-size="14.00">Does not have a value</text>
<text text-anchor="start" x="7.5" y="-198.3" font-family="Helvetica,Arial,sans-serif" font-size="14.00">Does not have a variant</text>
<polygon fill="none" stroke="black" points="0.5,-162.5 0.5,-187.5 161.5,-187.5 161.5,-162.5 0.5,-162.5"/>
<text text-anchor="start" x="5.5" y="-171.3" font-family="Helvetica,Arial,sans-serif" font-size="14.00">1 dependencies</text>
</g>
<!-- main&#45;&gt;mainlistener1 -->
<g id="edge6" class="edge">
<title>main:listener1&#45;&gt;mainlistener1:header</title>
<path fill="none" stroke="black" d="M201,-199.5C177.06,-199.5 185.27,-235.03 170.88,-245.58"/>
<polygon fill="black" stroke="black" points="169.6,-242.31 161,-248.5 171.58,-249.02 169.6,-242.31"/>
</g>
<!-- mainlistener2 -->
<g id="node8" class="node">
<title>mainlistener2</title>
<polygon fill="white" stroke="transparent" points="161,-144.5 0,-144.5 0,-46.5 161,-46.5 161,-144.5"/>
<polygon fill="none" stroke="black" points="0.5,-119.5 0.5,-144.5 161.5,-144.5 161.5,-119.5 0.5,-119.5"/>
<text text-anchor="start" x="5.5" y="-129.3" font-family="Helvetica,Arial,sans-serif" font-weight="bold" font-size="14.00">Listener</text>
<text text-anchor="start" x="58.5" y="-129.3" font-family="Helvetica,Arial,sans-serif" font-size="14.00"> </text>
<polygon fill="none" stroke="black" points="0.5,-71.5 0.5,-119.5 161.5,-119.5 161.5,-71.5 0.5,-71.5"/>
<text text-anchor="start" x="7.5" y="-101.3" font-family="Helvetica,Arial,sans-serif" font-size="14.00">Does not have a value</text>
<text text-anchor="start" x="7.5" y="-82.3" font-family="Helvetica,Arial,sans-serif" font-size="14.00">Does not have a variant</text>
<polygon fill="none" stroke="black" points="0.5,-46.5 0.5,-71.5 161.5,-71.5 161.5,-46.5 0.5,-46.5"/>
<text text-anchor="start" x="5.5" y="-55.3" font-family="Helvetica,Arial,sans-serif" font-size="14.00">1 dependencies</text>
</g>
<!-- main&#45;&gt;mainlistener2 -->
<g id="edge7" class="edge">
<title>main:listener2&#45;&gt;mainlistener2:header</title>
<path fill="none" stroke="#666666" stroke-dasharray="1,5" d="M201,-180.5C177.35,-180.5 185.11,-145.69 170.79,-135.36"/>
<polygon fill="#666666" stroke="#666666" points="171.58,-131.94 161,-132.5 169.62,-138.66 171.58,-131.94"/>
</g>
<!-- maindep1 -->
<g id="node2" class="node">
<title>maindep1</title>
<polygon fill="lightblue" stroke="transparent" stroke-width="2" points="617,-320 395,-320 395,-199 617,-199 617,-320"/>
<polygon fill="none" stroke="black" points="395,-294.5 395,-319.5 617,-319.5 617,-294.5 395,-294.5"/>
<text text-anchor="start" x="400" y="-304.3" font-family="Helvetica,Arial,sans-serif" font-weight="bold" font-size="14.00">Dependency</text>
<text text-anchor="start" x="481" y="-304.3" font-family="Helvetica,Arial,sans-serif" font-size="14.00"> </text>
<text text-anchor="start" x="485" y="-304.3" font-family="Helvetica,Arial,sans-serif" font-size="8.00" fill="gray">Depth: 1</text>
<polygon fill="none" stroke="black" points="395,-246.5 395,-294.5 617,-294.5 617,-246.5 395,-246.5"/>
<text text-anchor="start" x="402" y="-276.3" font-family="Helvetica,Arial,sans-serif" font-size="14.00">Does not have a value</text>
<text text-anchor="start" x="549" y="-276.3" font-family="Helvetica,Arial,sans-serif" font-size="14.00"> (pending)</text>
<text text-anchor="start" x="402" y="-257.3" font-family="Helvetica,Arial,sans-serif" font-size="14.00">Does not have a variant</text>
<polygon fill="none" stroke="black" points="395,-198.5 395,-246.5 617,-246.5 617,-198.5 395,-198.5"/>
<text text-anchor="start" x="402" y="-228.3" font-family="Helvetica,Arial,sans-serif" font-size="14.00">&#45; dependency 1</text>
<text text-anchor="start" x="402" y="-209.3" font-family="Helvetica,Arial,sans-serif" font-size="14.00">&#45; dependency 2</text>
</g>
<!-- maindep1&#45;&gt;main -->
<g id="edge3" class="edge">
<title>maindep1:header&#45;&gt;main:dep1</title>
<path fill="none" stroke="#999999" stroke-dasharray="5,2" d="M395,-307.5C367.21,-307.5 381.64,-262.38 365.06,-250.39"/>
<polygon fill="#999999" stroke="#999999" points="365.58,-246.9 355,-247.5 363.64,-253.63 365.58,-246.9"/>
</g>
<!-- maindep1dep1 -->
<g id="node3" class="node">
<title>maindep1dep1</title>
<polygon fill="lightyellow" stroke="transparent" stroke-width="2" points="830,-338.5 657,-338.5 657,-240.5 830,-240.5 830,-338.5"/>
<polygon fill="none" stroke="black" points="657.5,-313.5 657.5,-338.5 830.5,-338.5 830.5,-313.5 657.5,-313.5"/>
<text text-anchor="start" x="662.5" y="-323.3" font-family="Helvetica,Arial,sans-serif" font-weight="bold" font-size="14.00">Dependency</text>
<text text-anchor="start" x="743.5" y="-323.3" font-family="Helvetica,Arial,sans-serif" font-size="14.00"> </text>
<text text-anchor="start" x="747.5" y="-323.3" font-family="Helvetica,Arial,sans-serif" font-size="8.00" fill="gray">Depth: 2</text>
<polygon fill="none" stroke="black" points="657.5,-265.5 657.5,-313.5 830.5,-313.5 830.5,-265.5 657.5,-265.5"/>
<text text-anchor="start" x="664.5" y="-295.3" font-family="Helvetica,Arial,sans-serif" font-size="14.00">Current value: </text>
<text text-anchor="start" x="811.5" y="-295.3" font-family="Helvetica,Arial,sans-serif" font-size="14.00">3 </text>
<text text-anchor="start" x="664.5" y="-276.3" font-family="Helvetica,Arial,sans-serif" font-size="14.00">Does not have a variant</text>
<polygon fill="none" stroke="black" points="657.5,-240.5 657.5,-265.5 830.5,-265.5 830.5,-240.5 657.5,-240.5"/>
<text text-anchor="start" x="662.5" y="-249.3" font-family="Helvetica,Arial,sans-serif" font-size="14.00">No dependencies</text>
</g>
<!-- maindep1dep1&#45;&gt;maindep1 -->
<g id="edge1" class="edge">
<title>maindep1dep1:header&#45;&gt;maindep1:dep1</title>
<path fill="none" stroke="#1874cd" d="M656.5,-326.5C614.05,-326.5 651.66,-247.13 622.97,-233.48"/>
<polygon fill="#1874cd" stroke="#1874cd" points="623.49,-230.02 613,-231.5 622.12,-236.88 623.49,-230.02"/>
</g>
<!-- maindep1dep2 -->
<g id="node4" class="node">
<title>maindep1dep2</title>
<polygon fill="lightyellow" stroke="transparent" stroke-width="2" points="830,-222.5 657,-222.5 657,-124.5 830,-124.5 830,-222.5"/>
<polygon fill="none" stroke="black" points="657.5,-197.5 657.5,-222.5 830.5,-222.5 830.5,-197.5 657.5,-197.5"/>
<text text-anchor="start" x="662.5" y="-207.3" font-family="Helvetica,Arial,sans-serif" font-weight="bold" font-size="14.00">Dependency</text>
<text text-anchor="start" x="743.5" y="-207.3" font-family="Helvetica,Arial,sans-serif" font-size="14.00"> </text>
<text text-anchor="start" x="747.5" y="-207.3" font-family="Helvetica,Arial,sans-serif" font-size="8.00" fill="gray">Depth: 2</text>
<polygon fill="none" stroke="black" points="657.5,-149.5 657.5,-197.5 830.5,-197.5 830.5,-149.5 657.5,-149.5"/>
<text text-anchor="start" x="664.5" y="-179.3" font-family="Helvetica,Arial,sans-serif" font-size="14.00">Current value: </text>
<text text-anchor="start" x="811.5" y="-179.3" font-family="Helvetica,Arial,sans-serif" font-size="14.00">4 </text>
<text text-anchor="start" x="664.5" y="-160.3" font-family="Helvetica,Arial,sans-serif" font-size="14.00">Does not have a variant</text>
<polygon fill="none" stroke="black" points="657.5,-124.5 657.5,-149.5 830.5,-149.5 830.5,-124.5 657.5,-124.5"/>
<text text-anchor="start" x="662.5" y="-133.3" font-family="Helvetica,Arial,sans-serif" font-size="14.00">No dependencies</text>
</g>
<!-- maindep1dep2&#45;&gt;maindep1 -->
<g id="edge2" class="edge">
<title>maindep1dep2:header&#45;&gt;maindep1:dep2</title>
<path fill="none" stroke="#7ac5cd" stroke-dasharray="5,2" d="M656.5,-210.5C641.08,-210.5 634.9,-211.77 623.24,-212.29"/>
<polygon fill="#7ac5cd" stroke="#7ac5cd" points="622.92,-208.79 613,-212.5 623.07,-215.79 622.92,-208.79"/>
</g>
<!-- maindep2 -->
<g id="node5" class="node">
<title>maindep2</title>
<polygon fill="white" stroke="transparent" points="598,-180.5 414,-180.5 414,-78.5 598,-78.5 598,-180.5"/>
<polygon fill="none" stroke="black" points="414,-155.5 414,-180.5 598,-180.5 598,-155.5 414,-155.5"/>
<text text-anchor="start" x="419" y="-165.3" font-family="Helvetica,Arial,sans-serif" font-weight="bold" font-size="14.00">Dependency</text>
<text text-anchor="start" x="500" y="-165.3" font-family="Helvetica,Arial,sans-serif" font-size="14.00"> </text>
<text text-anchor="start" x="504" y="-165.3" font-family="Helvetica,Arial,sans-serif" font-size="8.00" fill="gray">Depth: 1</text>
<polygon fill="none" stroke="black" points="414,-107.5 414,-155.5 598,-155.5 598,-107.5 414,-107.5"/>
<text text-anchor="start" x="421" y="-137.3" font-family="Helvetica,Arial,sans-serif" font-size="14.00">Does not have a value</text>
<text text-anchor="start" x="421" y="-118.3" font-family="Helvetica,Arial,sans-serif" font-size="14.00">Variant: </text>
<text text-anchor="start" x="560" y="-118.3" font-family="Helvetica,Arial,sans-serif" font-size="14.00">dep2</text>
<polygon fill="none" stroke="black" points="414,-78.5 414,-107.5 598,-107.5 598,-78.5 414,-78.5"/>
<text text-anchor="start" x="421" y="-89.3" font-family="Helvetica,Arial,sans-serif" font-size="14.00">&#45; dependency 1</text>
</g>
<!-- maindep2&#45;&gt;main -->
<g id="edge5" class="edge">
<title>maindep2:header&#45;&gt;main:dep2</title>
<path fill="none" stroke="black" stroke-dasharray="5,2" d="M413,-168.5C379.82,-168.5 389.27,-216.51 365.08,-226.64"/>
<polygon fill="black" stroke="black" points="364.2,-223.24 355,-228.5 365.47,-230.13 364.2,-223.24"/>
</g>
<!-- maindep2dep1 -->
<g id="node6" class="node">
<title>maindep2dep1</title>
<polygon fill="white" stroke="transparent" points="834,-105 653,-105 653,0 834,0 834,-105"/>
<polygon fill="none" stroke="black" points="653.5,-79.5 653.5,-104.5 834.5,-104.5 834.5,-79.5 653.5,-79.5"/>
<text text-anchor="start" x="658.5" y="-89.3" font-family="Helvetica,Arial,sans-serif" font-weight="bold" font-size="14.00">Dependency</text>
<text text-anchor="start" x="739.5" y="-89.3" font-family="Helvetica,Arial,sans-serif" font-size="14.00"> </text>
<text text-anchor="start" x="743.5" y="-89.3" font-family="Helvetica,Arial,sans-serif" font-size="8.00" fill="gray">Depth: 2</text>
<polygon fill="none" stroke="black" points="653.5,-31.5 653.5,-79.5 834.5,-79.5 834.5,-31.5 653.5,-31.5"/>
<text text-anchor="start" x="660.5" y="-61.3" font-family="Helvetica,Arial,sans-serif" font-size="14.00">Does not have a value</text>
<text text-anchor="start" x="660.5" y="-42.3" font-family="Helvetica,Arial,sans-serif" font-size="14.00">Does not have a variant</text>
<polygon fill="none" stroke="black" points="653.5,0.5 653.5,-31.5 834.5,-31.5 834.5,0.5 653.5,0.5"/>
<text text-anchor="start" x="658.5" y="-16.3" font-family="Helvetica,Arial,sans-serif" font-size="14.00">1 dependencies</text>
<text text-anchor="start" x="658.5" y="-7.1" font-family="Helvetica,Arial,sans-serif" font-size="8.00" fill="gray">Use `max_depth` to render more dependencies</text>
</g>
<!-- maindep2dep1&#45;&gt;maindep2 -->
<g id="edge4" class="edge">
<title>maindep2dep1:header&#45;&gt;maindep2:dep1</title>
<path fill="none" stroke="black" d="M653,-92.5C630.47,-92.5 622.45,-92.5 604.01,-92.5"/>
<polygon fill="black" stroke="black" points="604,-89 594,-92.5 604,-96 604,-89"/>
</g>
</g>
</svg>
